<?xml version="1.0" encoding="utf-8"?>
<!-- Generator: Adobe Illustrator 23.0.4, SVG Export Plug-In . SVG Version: 6.00 Build 0)  -->
<svg version="1.1" id="bird-cells" xmlns="http://www.w3.org/2000/svg" xmlns:xlink="http://www.w3.org/1999/xlink" x="0px" y="0px"
	 viewBox="0 0 3671 510" style="enable-background:new 0 0 3671 510;" xml:space="preserve">
<style type="text/css">
	.st0{fill-rule:evenodd;clip-rule:evenodd;fill:url(#SVGID_1_);}
	.st1{fill-rule:evenodd;clip-rule:evenodd;fill:#494949;}
	.st2{fill:#494949;}
	.st3{fill-rule:evenodd;clip-rule:evenodd;fill:url(#SVGID_2_);}
	.st4{fill-rule:evenodd;clip-rule:evenodd;fill:url(#SVGID_3_);}
	.st5{fill-rule:evenodd;clip-rule:evenodd;fill:url(#SVGID_4_);}
	.st6{fill-rule:evenodd;clip-rule:evenodd;fill:url(#SVGID_5_);}
	.st7{fill-rule:evenodd;clip-rule:evenodd;fill:url(#SVGID_6_);}
	.st8{fill-rule:evenodd;clip-rule:evenodd;fill:url(#SVGID_7_);}
	.st9{fill-rule:evenodd;clip-rule:evenodd;fill:url(#SVGID_8_);}
	.st10{fill-rule:evenodd;clip-rule:evenodd;fill:none;}
</style>
<g transform="translate(-1.18 -5.056)">
	
		<linearGradient id="SVGID_1_" gradientUnits="userSpaceOnUse" x1="1524.1573" y1="651.712" x2="1524.8751" y2="650.0032" gradientTransform="matrix(40.5356 52.3742 51.0948 -39.5454 -92995.2969 -53850.3945)">
		<stop  offset="0" style="stop-color:#FCEA52"/>
		<stop  offset="1" style="stop-color:#FFE400"/>
	</linearGradient>
	<path class="st0" d="M2008.5,297.9c22.6,29.3,48.7,42.6,77.9,20.1c14.6-11.3,34.1-32.9,36.2-49.9c2.1-17-10.7-43.8-22-58.5
		c-22.6-29.3-60.2-20.3-87,0.4S1985.9,268.7,2008.5,297.9z"/>
	<g transform="translate(0 5)">
		<g transform="translate(34.5 19.307)">
			<path class="st1" d="M2004,261.4c1.2-0.9,1.4-2.8,0.7-5.7c-2.7-1.4-4.6-1.6-5.8-0.7c-1.8,1.4-2.1,3.9-0.7,5.7
				C1999.6,262.4,2002.2,262.7,2004,261.4z"/>
			<path class="st2" d="M2038.1,207.7l-30.6,47c-0.9,1.4,0.3,4.2,1.8,5c1.4,0.8,4.9,0.4,5.8-1l26.9-49c0.9-1.4,1.4-2.9,0-3.8
				C2040.4,205.2,2038.9,206.3,2038.1,207.7z"/>
			<path class="st1" d="M2015.7,271.1c2.1,0,3.9-2.1,3.9-4.7c0-1.7-1.3-3.3-3.9-4.7c-2.6,1.4-3.9,2.9-3.9,4.7
				C2011.8,269,2013.6,271.1,2015.7,271.1z"/>
		</g>
		<path class="st1" d="M2066.7,258.8c-8.2-2.8,21.3-11.3,44.4-11c23.1,0.3,56.7,5.5,54.6,17.4C2163.6,277.2,2075,261.6,2066.7,258.8
			z"/>
		<path class="st1" d="M2050.6,252.6c6.2,0.9-12.1-22.1-25.4-32.2c-13.3-10.1-44.5-25.7-50.3-15
			C1969,215.9,2044.4,251.7,2050.6,252.6z"/>
		<path class="st1" d="M2057,272.6c2.6-5.7,26-5.3,46.9,0.8c20.9,6.1,39.5,10.6,39.3,17.9c-0.1,7.4-8.5,12.3-37.1,2.8
			C2077.4,284.7,2054.4,278.4,2057,272.6z"/>
		<path class="st1" d="M2041.6,265.9c1.2-5.8-16.4-17.5-35.3-23.5c-18.9-6-35.1-12.1-39.1-6.4c-3.9,5.8-0.4,13.8,26.1,21.3
			C2019.8,264.8,2040.4,271.7,2041.6,265.9z"/>
	</g>
</g>
<g>
	
		<linearGradient id="SVGID_2_" gradientUnits="userSpaceOnUse" x1="1524.7732" y1="653.5261" x2="1525.491" y2="651.8174" gradientTransform="matrix(0.1311 -66.2282 -64.6104 -0.1279 43564.543 101348.2578)">
		<stop  offset="0" style="stop-color:#FCEA52"/>
		<stop  offset="1" style="stop-color:#FFE400"/>
	</linearGradient>
	<path class="st3" d="M1659.1,255.3c0.1-37-12.3-63.6-49.2-63.6c-18.4,0-47.1,5.1-59.2,17.2c-12.1,12.1-18.4,41.2-18.5,59.7
		c-0.1,37,35.1,53,69,53.1C1635.1,321.7,1659,292.3,1659.1,255.3z"/>
	<g transform="translate(34.5 19.307)">
		<path class="st1" d="M1543.3,261.3c1.2-0.9,1.4-2.8,0.7-5.7c-2.7-1.4-4.6-1.6-5.8-0.7c-1.8,1.4-2.1,3.9-0.7,5.7
			C1538.9,262.4,1541.5,262.7,1543.3,261.3z"/>
		<path class="st2" d="M1577.3,207.7l-30.6,47c-0.9,1.4,0.3,4.2,1.8,5c1.4,0.8,4.9,0.4,5.8-1l26.9-49c0.9-1.4,1.4-2.9,0-3.8
			C1579.7,205.2,1578.2,206.3,1577.3,207.7z"/>
		<path class="st1" d="M1555,271c2.1,0,3.9-2.1,3.9-4.7c0-1.7-1.3-3.3-3.9-4.7c-2.6,1.4-3.9,2.9-3.9,4.7
			C1551.1,268.9,1552.8,271,1555,271z"/>
	</g>
	<path class="st1" d="M1606,258.8c-8-3.5,22.2-9.4,45.2-7.1s56,10.3,52.9,22.1S1614,262.3,1606,258.8z"/>
	<path class="st1" d="M1589.8,252.5c6.2,0.5-13.3-21.4-27.2-30.8c-13.9-9.4-45.9-23.1-51.1-12.2
		C1506.3,220.5,1583.6,252,1589.8,252.5z"/>
	<path class="st1" d="M1596.3,272.6c2.3-5.9,25.6-7,46.8-2.1c21.2,4.8,40,8.1,40.4,15.4c0.3,7.3-7.7,12.8-36.9,5.2
		C1617.4,283.4,1594,278.5,1596.3,272.6z"/>
	<path class="st1" d="M1580.8,265.8c1.6-5.7-15-18.8-33.3-26.2c-18.4-7.5-34.1-14.9-38.4-9.5c-4.4,5.4-1.5,13.8,24.3,23.3
		C1559.2,263,1579.2,271.5,1580.8,265.8z"/>
</g>
<g>
	
		<linearGradient id="SVGID_3_" gradientUnits="userSpaceOnUse" x1="1526.5574" y1="660.3512" x2="1527.275" y2="658.6425" gradientTransform="matrix(64.7218 -14.0456 -13.7026 -63.1408 -88650.8984 63341.4883)">
		<stop  offset="0" style="stop-color:#FCEA52"/>
		<stop  offset="1" style="stop-color:#FFE400"/>
	</linearGradient>
	<path class="st4" d="M1153.5,315.7c36.2-7.8,59.5-25.6,51.6-61.6c-3.9-18-15-44.9-29.5-54.1c-14.4-9.2-44.2-9.2-62.3-5.3
		c-36.2,7.8-44.3,45.6-37.1,78.8S1117.3,323.5,1153.5,315.7z"/>
	<g transform="translate(34.5 19.307)">
		<path class="st1" d="M1086.8,261.3c1.2-0.9,1.4-2.8,0.7-5.7c-2.7-1.4-4.6-1.6-5.8-0.7c-1.8,1.4-2.1,3.9-0.7,5.7
			C1082.4,262.4,1085,262.7,1086.8,261.3z"/>
		<path class="st2" d="M1120.8,207.7l-30.6,47c-0.9,1.4,0.3,4.2,1.8,5c1.4,0.8,4.9,0.4,5.8-1l26.9-49c0.9-1.4,1.4-2.9,0-3.8
			C1123.2,205.2,1121.7,206.3,1120.8,207.7z"/>
		<path class="st1" d="M1098.4,271c2.1,0,3.9-2.1,3.9-4.7c0-1.7-1.3-3.3-3.9-4.7c-2.6,1.4-3.9,2.9-3.9,4.7
			C1094.6,268.9,1096.3,271,1098.4,271z"/>
	</g>
	<path class="st1" d="M1149.5,258.8c-7.4-4.6,23.3-6.2,45.8-0.6c22.5,5.5,54,18.2,49.2,29.4C1239.6,298.7,1156.9,263.3,1149.5,258.8
		z"/>
	<path class="st1" d="M1133.3,252.5c6.2-0.5-16.5-19-31.7-26.1s-48.9-15.6-52.4-4C1045.8,234,1127.1,253,1133.3,252.5z"/>
	<path class="st1" d="M1139.8,272.6c1.2-6.2,23.9-11.5,45.7-10.6s40.8,0.6,42.5,7.8c1.7,7.2-5.2,14-35.3,11.8
		C1162.5,279.4,1138.6,278.8,1139.8,272.6z"/>
	<path class="st1" d="M1124.3,265.8c2.8-5.2-10.7-21.5-27.1-32.6c-16.4-11.2-30.2-21.7-35.6-17.3c-5.4,4.4-4.4,13.1,18.9,27.9
		C1103.7,258.6,1121.5,271.1,1124.3,265.8z"/>
</g>
<g>
	
		<linearGradient id="SVGID_4_" gradientUnits="userSpaceOnUse" x1="1528.3275" y1="667.123" x2="1529.0452" y2="665.4142" gradientTransform="matrix(-51.2338 -41.9676 -40.9425 49.9823 106287.8359 31112.0938)">
		<stop  offset="0" style="stop-color:#FCEA52"/>
		<stop  offset="1" style="stop-color:#FFE400"/>
	</linearGradient>
	<path class="st5" d="M727,207.1c-28.6-23.5-57-30.6-80.4-2.1c-11.7,14.3-25.8,39.7-24.1,56.7c1.7,17,20.3,40.3,34.6,52
		c28.6,23.5,63.3,6.3,84.7-19.9C763.3,267.6,755.6,230.5,727,207.1z"/>
	<g transform="translate(34.5 19.307)">
		<path class="st1" d="M633.8,261.3c1.2-0.9,1.4-2.8,0.7-5.7c-2.7-1.4-4.6-1.6-5.8-0.7c-1.8,1.4-2.1,3.9-0.7,5.7
			C629.4,262.4,632,262.7,633.8,261.3z"/>
		<path class="st2" d="M667.8,207.7l-30.6,47c-0.9,1.4,0.3,4.2,1.8,5s4.9,0.4,5.8-1l26.9-49c0.9-1.4,1.4-2.9,0-3.8
			C670.2,205.2,668.7,206.3,667.8,207.7z"/>
		<path class="st1" d="M645.5,271c2.1,0,3.9-2.1,3.9-4.7c0-1.7-1.3-3.3-3.9-4.7c-2.6,1.4-3.9,2.9-3.9,4.7
			C641.6,268.9,643.3,271,645.5,271z"/>
	</g>
	<path class="st1" d="M696.5,258.8c-6.2-6.1,24.1-1,44.8,9.2s48.8,29.4,41.7,39.3S702.7,264.8,696.5,258.8z"/>
	<path class="st1" d="M680.3,252.5c6-1.6-19.7-15.8-35.8-20c-16.2-4.2-50.9-6.7-52.3,5.4C590.9,249.9,674.3,254.1,680.3,252.5z"/>
	<path class="st1" d="M687.8,271.6c0.6-6.3,22.8-13.6,44.5-14.6c21.8-1.1,40.7-3,43,4c2.3,7-4,14.4-34.2,14.9
		C711,276.3,687.2,277.8,687.8,271.6z"/>
	<path class="st1" d="M671.4,265.8c3.3-4.9-8.4-22.5-23.5-35.3s-27.7-24.8-33.6-21c-5.8,3.8-5.7,12.6,15.8,29.7
		C651.7,256.4,668,270.7,671.4,265.8z"/>
</g>
<g>
	
		<linearGradient id="SVGID_5_" gradientUnits="userSpaceOnUse" x1="1530.103" y1="673.9151" x2="1530.8207" y2="672.2064" gradientTransform="matrix(-17.1411 -63.9716 -62.409 16.7224 68471.0391 86909.3906)">
		<stop  offset="0" style="stop-color:#FCEA52"/>
		<stop  offset="1" style="stop-color:#FFE400"/>
	</linearGradient>
	<path class="st6" d="M293.2,239.1c-9.6-35.7-28.5-58.2-64-48.6c-17.8,4.8-44.1,17.2-52.7,32c-8.5,14.8-7,44.6-2.3,62.4
		c9.6,35.7,47.7,42,80.4,33.2S302.7,274.8,293.2,239.1z"/>
	<g transform="translate(34.5 19.307)">
		<path class="st1" d="M179.5,261.3c1.2-0.9,1.4-2.8,0.7-5.7c-2.7-1.4-4.6-1.6-5.8-0.7c-1.8,1.4-2.1,3.9-0.7,5.7
			C175.1,262.4,177.7,262.7,179.5,261.3z"/>
		<path class="st2" d="M213.5,207.7l-30.6,47c-0.9,1.4,0.3,4.2,1.8,5s4.9,0.4,5.8-1l26.9-49c0.9-1.4,1.4-2.9,0-3.8
			C215.9,205.2,214.4,206.3,213.5,207.7z"/>
		<path class="st1" d="M191.2,271c2.1,0,3.9-2.1,3.9-4.7c0-1.7-1.3-3.3-3.9-4.7c-2.6,1.4-3.9,2.9-3.9,4.7
			C187.3,268.9,189,271,191.2,271z"/>
	</g>
	<path class="st1" d="M242.2,258.8c-5.2-7,23.9,2.8,42.8,16.2c18.9,13.4,43.5,36.8,35,45.4C311.4,329,247.4,265.7,242.2,258.8z"/>
	<path class="st1" d="M226,252.5c5.4-3.1-23.1-10.1-39.8-10c-16.7,0.1-50.9,6.9-49,18.9C139.1,273.4,220.6,255.6,226,252.5z"/>
	<path class="st1" d="M234.5,272.6c-0.2-6.3,20.8-16.4,42.3-20.3c21.4-3.9,40-8.2,43.2-1.6c3.2,6.6-2.1,14.8-31.9,19.2
		C258.1,274.3,234.7,278.9,234.5,272.6z"/>
	<path class="st1" d="M218,264.8c4-4.3-5-23.5-18.1-38.4s-23.8-28.5-30.1-25.7c-6.3,2.9-7.5,11.6,11.3,31.7S214,269.2,218,264.8z"/>
</g>
<g>
	
		<linearGradient id="SVGID_6_" gradientUnits="userSpaceOnUse" x1="1521.1807" y1="639.7828" x2="1521.8984" y2="638.0741" gradientTransform="matrix(-1.1926 66.2176 64.6001 1.1635 -36942.0195 -101244.0625)">
		<stop  offset="0" style="stop-color:#FCEA52"/>
		<stop  offset="1" style="stop-color:#FFE400"/>
	</linearGradient>
	<path class="st7" d="M2454.2,253.7c-0.7,37,11.3,63.8,48.1,64.4c18.4,0.3,47.2-4.3,59.5-16.3c12.3-11.9,19.1-40.9,19.4-59.4
		c0.7-37-34.3-53.6-68.1-54.2C2479.2,187.7,2454.9,216.7,2454.2,253.7z"/>
	<g transform="translate(34.5 19.307)">
		<path class="st1" d="M2462.6,261.3c1.2-0.9,1.4-2.8,0.7-5.7c-2.7-1.4-4.6-1.6-5.8-0.7c-1.8,1.4-2.1,3.9-0.7,5.7
			C2458.2,262.4,2460.8,262.7,2462.6,261.3z"/>
		<path class="st2" d="M2496.6,207.7l-30.6,47c-0.9,1.4,0.3,4.2,1.8,5c1.4,0.8,4.9,0.4,5.8-1l26.9-49c0.9-1.4,1.4-2.9,0-3.8
			C2499,205.2,2497.5,206.3,2496.6,207.7z"/>
		<path class="st1" d="M2474.3,271c2.1,0,3.9-2.1,3.9-4.7c0-1.7-1.3-3.3-3.9-4.7c-2.6,1.4-3.9,2.9-3.9,4.7
			C2470.4,268.9,2472.1,271,2474.3,271z"/>
	</g>
	<path class="st1" d="M2525.3,258.8c-8.4-2.3,20.5-12.7,43.6-13.9c23.1-1.2,56.9,1.7,55.6,13.8
		C2623.1,270.8,2533.7,261,2525.3,258.8z"/>
	<path class="st1" d="M2509.1,252.5c6.1,1.3-10.4-23-22.9-34.1s-42.4-29-49-18.9C2430.6,209.7,2503,251.2,2509.1,252.5z"/>
	<path class="st1" d="M2515.6,272.6c3-5.6,26.3-3.7,46.7,3.8s38.7,13.1,38.1,20.4c-0.6,7.3-9.2,11.7-37.2,0.5
		C2535.1,286,2512.6,278.1,2515.6,272.6z"/>
	<path class="st1" d="M2500.1,265.8c0.7-5.9-17.9-16-37.2-20.3c-19.4-4.3-36.1-9-39.5-2.9c-3.4,6.1,0.8,13.8,27.8,18.9
		C2478.3,266.7,2499.5,271.7,2500.1,265.8z"/>
</g>
<g>
	
		<linearGradient id="SVGID_7_" gradientUnits="userSpaceOnUse" x1="1519.3868" y1="632.9204" x2="1520.1045" y2="631.2117" gradientTransform="matrix(-4.6087 -66.0677 -64.4539 4.4961 50716.793 97822.5469)">
		<stop  offset="0" style="stop-color:#FCEA52"/>
		<stop  offset="1" style="stop-color:#FFE400"/>
	</linearGradient>
	<path class="st8" d="M3037.2,250.8c-2.6-36.9-16.8-62.5-53.6-59.9c-18.4,1.3-46.6,8.4-57.8,21.4c-11.2,12.9-15.4,42.4-14.1,60.9
		c2.6,36.9,38.8,50.4,72.6,48C3018.1,318.8,3039.8,287.7,3037.2,250.8z"/>
	<g transform="translate(34.5 19.307)">
		<path class="st1" d="M2921.6,261.3c1.2-0.9,1.4-2.8,0.7-5.7c-2.7-1.4-4.6-1.6-5.8-0.7c-1.8,1.4-2.1,3.9-0.7,5.7
			C2917.2,262.4,2919.8,262.7,2921.6,261.3z"/>
		<path class="st2" d="M2955.7,207.7l-30.6,47c-0.9,1.4,0.3,4.2,1.8,5c1.4,0.8,4.9,0.4,5.8-1l26.9-49c0.9-1.4,1.4-2.9,0-3.8
			C2958,205.2,2956.5,206.3,2955.7,207.7z"/>
		<path class="st1" d="M2933.3,271c2.1,0,3.9-2.1,3.9-4.7c0-1.7-1.3-3.3-3.9-4.7c-2.6,1.4-3.9,2.9-3.9,4.7
			C2929.4,268.9,2931.1,271,2933.3,271z"/>
	</g>
	<path class="st1" d="M2984.3,258.8c-8.5-1.7,19.6-14,42.6-16.7c23-2.7,56.9-2,56.4,10.2C3082.7,264.4,2992.8,260.5,2984.3,258.8z"
		/>
	<path class="st1" d="M2968.1,252.5c6,1.9-8.2-23.8-19.7-36s-39.6-32.8-47.1-23.3C2893.9,202.7,2962.2,250.7,2968.1,252.5z"/>
	<path class="st1" d="M2975.6,271.6c3.4-5.3,26.5-1.6,46.3,7.4c19.8,9,37.6,16,36.4,23.3c-1.2,7.3-10.1,10.9-37.2-2.4
		C2994.1,286.4,2972.2,276.9,2975.6,271.6z"/>
	<path class="st1" d="M2960.2,264.8c0.3-5.9-18.9-14.7-38.5-17.7c-19.6-3-36.6-6.5-39.6-0.2c-3,6.3,1.8,13.7,29.1,17
		C2938.4,267.2,2959.9,270.8,2960.2,264.8z"/>
</g>
<g>
	
		<linearGradient id="SVGID_8_" gradientUnits="userSpaceOnUse" x1="1517.59" y1="626.0465" x2="1518.3076" y2="624.3378" gradientTransform="matrix(-54.1505 -38.1302 -37.1988 52.8278 108890.5859 25110.5098)">
		<stop  offset="0" style="stop-color:#FCEA52"/>
		<stop  offset="1" style="stop-color:#FFE400"/>
	</linearGradient>
	<path class="st9" d="M3471,204.3c-30.2-21.3-59.1-26.4-80.3,3.7c-10.6,15.1-22.9,41.5-19.9,58.3c3,16.8,23.2,38.7,38.3,49.4
		c30.2,21.3,63.6,1.7,83.1-26S3501.2,225.6,3471,204.3z"/>
	<g transform="translate(34.5 19.307)">
		<path class="st1" d="M3381.4,261.3c1.2-0.9,1.4-2.8,0.7-5.7c-2.7-1.4-4.6-1.6-5.8-0.7c-1.8,1.4-2.1,3.9-0.7,5.7
			C3377,262.4,3379.6,262.7,3381.4,261.3z"/>
		<path class="st2" d="M3415.4,207.7l-30.6,47c-0.9,1.4,0.3,4.2,1.8,5s4.9,0.4,5.8-1l26.9-49c0.9-1.4,1.4-2.9,0-3.8
			C3417.8,205.2,3416.3,206.3,3415.4,207.7z"/>
		<path class="st1" d="M3393.1,271c2.1,0,3.9-2.1,3.9-4.7c0-1.7-1.3-3.3-3.9-4.7c-2.6,1.4-3.9,2.9-3.9,4.7
			C3389.2,268.9,3390.9,271,3393.1,271z"/>
	</g>
	<path class="st1" d="M3444.1,258.8c-8.6-1,18.5-15.4,41.2-19.9c22.7-4.5,56.6-6.3,57,5.9C3542.7,256.9,3452.8,259.8,3444.1,258.8z"
		/>
	<path class="st1" d="M3427.9,252.5c5.7,2.6-5.3-24.6-15.2-38.1c-9.9-13.5-35.4-37.2-44-28.7C3360.1,194.2,3422.3,250,3427.9,252.5z
		"/>
	<path class="st1" d="M3436.4,270.6c3.8-5.1,26.5,0.2,45.7,10.5c19.2,10.3,36.4,18.5,34.8,25.7s-10.8,10.2-36.9-4.9
		S3432.6,275.6,3436.4,270.6z"/>
	<path class="st1" d="M3420,263.8c-0.4-5.9-20.4-12.6-40.3-13.4c-19.8-0.8-37.1-2.4-39.4,4.2c-2.3,6.6,3.3,13.5,30.8,13.7
		C3398.6,268.5,3420.3,269.8,3420,263.8z"/>
</g>
<rect y="0" class="st10" width="458.8" height="510"/>
<rect x="458.8" y="0" class="st10" width="458.8" height="510"/>
<rect x="917.6" y="0" class="st10" width="458.8" height="510"/>
<rect x="1376.4" y="0" class="st10" width="458.8" height="510"/>
<rect x="1835.2" y="0" class="st10" width="458.8" height="510"/>
<rect x="2294.1" y="0" class="st10" width="458.8" height="510"/>
<rect x="2752.9" y="0" class="st10" width="458.8" height="510"/>
<rect x="3211.7" y="0" class="st10" width="458.8" height="510"/>
</svg>
