<?xml version="1.0" encoding="utf-8"?>
<!-- Generator: Adobe Illustrator 23.0.4, SVG Export Plug-In . SVG Version: 6.00 Build 0)  -->
<svg version="1.1" id="bird-cells" xmlns="http://www.w3.org/2000/svg" xmlns:xlink="http://www.w3.org/1999/xlink" x="0px" y="0px"
	 viewBox="0 0 3600 500" style="enable-background:new 0 0 3600 500;" xml:space="preserve">
<style type="text/css">
	.st0{fill-rule:evenodd;clip-rule:evenodd;fill:#494949;}
	.st1{fill:#494949;}
</style>
<g transform="translate(34.5 19.307)">
	<path class="st0" d="M163.2,256.3c1.2-0.9,1.4-2.8,0.7-5.7c-2.7-1.4-4.6-1.6-5.8-0.7c-1.8,1.4-2.1,3.9-0.7,5.7
		C158.8,257.4,161.4,257.7,163.2,256.3z"/>
	<path class="st1" d="M197.2,202.7l-30.6,47c-0.9,1.4,0.3,4.2,1.8,5c1.4,0.8,4.9,0.4,5.8-1l26.9-49c0.9-1.4,1.4-2.9,0-3.8
		C199.6,200.2,198.1,201.3,197.2,202.7z"/>
	<path class="st0" d="M174.9,266c2.1,0,3.9-2.1,3.9-4.7c0-1.7-1.3-3.3-3.9-4.7c-2.6,1.4-3.9,2.9-3.9,4.7
		C171,263.9,172.7,266,174.9,266z"/>
</g>
<path class="st0" d="M225.9,253.8c-8.2-2.8,21.3-11.3,44.4-11s56.7,5.5,54.6,17.4C322.7,272.1,234.1,256.6,225.9,253.8z"/>
<path class="st0" d="M209.7,247.5c6.2,0.9-12.1-22.1-25.4-32.2c-13.3-10.1-44.5-25.7-50.3-15C128.2,210.9,203.5,246.7,209.7,247.5z"
	/>
<path class="st0" d="M216.2,267.6c2.6-5.7,26-5.3,46.9,0.8c20.9,6.1,39.5,10.6,39.3,17.9c-0.1,7.4-8.5,12.3-37.1,2.8
	C236.6,279.7,213.5,273.3,216.2,267.6z"/>
<path class="st0" d="M200.7,260.8c1.2-5.8-16.4-17.5-35.3-23.5c-18.9-6-35.1-12.1-39.1-6.4c-3.9,5.8-0.4,13.8,26.1,21.3
	C178.9,259.7,199.5,266.6,200.7,260.8z"/>
<g>
	<g transform="translate(0 5)">
		<g transform="translate(34.5 19.307)">
			<path class="st0" d="M3313.2,251.3c1.2-0.9,1.4-2.8,0.7-5.7c-2.7-1.4-4.6-1.6-5.8-0.7c-1.8,1.4-2.1,3.9-0.7,5.7
				C3308.8,252.4,3311.4,252.7,3313.2,251.3z"/>
			<path class="st1" d="M3347.2,197.7l-30.6,47c-0.9,1.4,0.3,4.2,1.8,5c1.4,0.8,4.9,0.4,5.8-1l26.9-49c0.9-1.4,1.4-2.9,0-3.8
				C3349.6,195.2,3348.1,196.3,3347.2,197.7z"/>
			<path class="st0" d="M3324.9,261c2.1,0,3.9-2.1,3.9-4.7c0-1.7-1.3-3.3-3.9-4.7c-2.6,1.4-3.9,2.9-3.9,4.7
				C3321,258.9,3322.7,261,3324.9,261z"/>
		</g>
		<path class="st0" d="M3375.9,248.8c-8.2-2.8,21.3-11.3,44.4-11s56.7,5.5,54.6,17.4C3472.8,267.1,3384.1,251.6,3375.9,248.8z"/>
		<path class="st0" d="M3359.7,242.5c6.2,0.9-12.1-22.1-25.4-32.2c-13.3-10.1-44.5-25.7-50.3-15
			C3278.2,205.9,3353.5,241.7,3359.7,242.5z"/>
		<path class="st0" d="M3366.2,262.6c2.3-5.9,25.7-6.7,46.9-1.7c21.2,5,40,8.5,40.2,15.8c0.3,7.3-7.8,12.7-36.9,4.8
			C3387.2,273.6,3363.9,268.4,3366.2,262.6z"/>
		<path class="st0" d="M3350.7,255.8c1.6-5.7-15.2-18.5-33.7-25.7c-18.5-7.2-34.3-14.4-38.6-8.9c-4.3,5.5-1.3,13.8,24.7,22.9
			C3329.1,253.3,3349.2,261.6,3350.7,255.8z"/>
	</g>
</g>
<g>
	<g transform="translate(34.5 19.307)">
		<path class="st0" d="M612.8,256.3c1.2-0.9,1.4-2.8,0.7-5.7c-2.7-1.4-4.6-1.6-5.8-0.7c-1.8,1.4-2.1,3.9-0.7,5.7
			C608.4,257.4,611,257.7,612.8,256.3z"/>
		<path class="st1" d="M646.9,202.7l-30.6,47c-0.9,1.4,0.3,4.2,1.8,5c1.4,0.8,4.9,0.4,5.8-1l26.9-49c0.9-1.4,1.4-2.9,0-3.8
			C649.2,200.2,647.7,201.3,646.9,202.7z"/>
		<path class="st0" d="M624.5,266c2.1,0,3.9-2.1,3.9-4.7c0-1.7-1.3-3.3-3.9-4.7c-2.6,1.4-3.9,2.9-3.9,4.7
			C620.6,263.9,622.4,266,624.5,266z"/>
	</g>
	<g transform="translate(0 5)">
		<g transform="translate(34.5 19.307)">
			<path class="st0" d="M613.1,251.3c1.2-0.9,1.4-2.8,0.7-5.7c-2.7-1.4-4.6-1.6-5.8-0.7c-1.8,1.4-2.1,3.9-0.7,5.7
				C608.7,252.4,611.3,252.7,613.1,251.3z"/>
			<path class="st1" d="M647.2,197.7l-30.6,47c-0.9,1.4,0.3,4.2,1.8,5c1.4,0.8,4.9,0.4,5.8-1l26.9-49c0.9-1.4,1.4-2.9,0-3.8
				C649.5,195.2,648,196.3,647.2,197.7z"/>
			<path class="st0" d="M624.8,261c2.1,0,3.9-2.1,3.9-4.7c0-1.7-1.3-3.3-3.9-4.7c-2.6,1.4-3.9,2.9-3.9,4.7
				C620.9,258.9,622.6,261,624.8,261z"/>
		</g>
		<path class="st0" d="M675.8,248.8c-8.4-2.3,20.5-12.7,43.6-13.9c23.1-1.2,56.9,1.8,55.6,13.8S684.2,251,675.8,248.8z"/>
		<path class="st0" d="M659.6,242.5c6.1,1.2-10.8-22.8-23.5-33.7c-12.7-10.9-42.9-28.3-49.3-18C580.4,201.1,653.5,241.3,659.6,242.5
			z"/>
		<path class="st0" d="M666.1,262.6c2.6-5.7,26-5.3,46.9,0.8c20.9,6.1,39.5,10.6,39.3,17.9c-0.1,7.4-8.5,12.3-37.1,2.8
			C686.5,274.7,663.5,268.3,666.1,262.6z"/>
		<path class="st0" d="M650.7,255.8c1.2-5.8-16.4-17.5-35.3-23.5c-18.9-6-35.1-12.1-39.1-6.4c-3.9,5.8-0.4,13.8,26.1,21.3
			C628.9,254.7,649.5,261.6,650.7,255.8z"/>
	</g>
</g>
<g>
	<g transform="translate(34.5 19.307)">
		<path class="st0" d="M1062.4,256.3c1.2-0.9,1.4-2.8,0.7-5.7c-2.7-1.4-4.6-1.6-5.8-0.7c-1.8,1.4-2.1,3.9-0.7,5.7
			C1058,257.4,1060.6,257.7,1062.4,256.3z"/>
		<path class="st1" d="M1096.5,202.7l-30.6,47c-0.9,1.4,0.3,4.2,1.8,5c1.4,0.8,4.9,0.4,5.8-1l26.9-49c0.9-1.4,1.4-2.9,0-3.8
			C1098.8,200.2,1097.3,201.3,1096.5,202.7z"/>
		<path class="st0" d="M1074.1,266c2.1,0,3.9-2.1,3.9-4.7c0-1.7-1.3-3.3-3.9-4.7c-2.6,1.4-3.9,2.9-3.9,4.7
			C1070.2,263.9,1072,266,1074.1,266z"/>
	</g>
	<g transform="translate(0 5)">
		<g transform="translate(34.5 19.307)">
			<path class="st0" d="M1062.7,251.3c1.2-0.9,1.4-2.8,0.7-5.7c-2.7-1.4-4.6-1.6-5.8-0.7c-1.8,1.4-2.1,3.9-0.7,5.7
				C1058.3,252.4,1060.9,252.7,1062.7,251.3z"/>
			<path class="st1" d="M1096.8,197.7l-30.6,47c-0.9,1.4,0.3,4.2,1.8,5c1.4,0.8,4.9,0.4,5.8-1l26.9-49c0.9-1.4,1.4-2.9,0-3.8
				C1099.1,195.2,1097.6,196.3,1096.8,197.7z"/>
			<path class="st0" d="M1074.4,261c2.1,0,3.9-2.1,3.9-4.7c0-1.7-1.3-3.3-3.9-4.7c-2.6,1.4-3.9,2.9-3.9,4.7
				C1070.5,258.9,1072.3,261,1074.4,261z"/>
		</g>
		<path class="st0" d="M1125.4,248.8c-8.5-1.7,19.7-13.9,42.7-16.5c23-2.7,56.9-1.7,56.3,10.4C1223.8,254.8,1134,250.5,1125.4,248.8
			z"/>
		<path class="st0" d="M1109.3,242.5c6,1.7-8.9-23.6-20.7-35.5c-11.8-11.9-40.5-31.7-47.7-22
			C1033.6,194.8,1103.3,240.8,1109.3,242.5z"/>
		<path class="st0" d="M1115.7,262.6c2.5-5.8,25.8-6,46.9-0.3c21,5.6,39.7,9.6,39.8,17c0,7.4-8.2,12.5-37.1,3.7
			C1136.4,274.2,1113.2,268.4,1115.7,262.6z"/>
		<path class="st0" d="M1100.3,255.8c1.4-5.8-15.7-18.1-34.4-24.8c-18.7-6.7-34.7-13.4-38.8-7.8c-4.1,5.6-0.9,13.8,25.3,22.2
			C1078.5,253.9,1098.9,261.6,1100.3,255.8z"/>
	</g>
</g>
<g>
	<g transform="translate(34.5 19.307)">
		<path class="st0" d="M1513.3,256.3c1.2-0.9,1.4-2.8,0.7-5.7c-2.7-1.4-4.6-1.6-5.8-0.7c-1.8,1.4-2.1,3.9-0.7,5.7
			C1508.9,257.4,1511.5,257.7,1513.3,256.3z"/>
		<path class="st1" d="M1547.4,202.7l-30.6,47c-0.9,1.4,0.3,4.2,1.8,5c1.4,0.8,4.9,0.4,5.8-1l26.9-49c0.9-1.4,1.4-2.9,0-3.8
			C1549.7,200.2,1548.2,201.3,1547.4,202.7z"/>
		<path class="st0" d="M1525,266c2.1,0,3.9-2.1,3.9-4.7c0-1.7-1.3-3.3-3.9-4.7c-2.6,1.4-3.9,2.9-3.9,4.7
			C1521.1,263.9,1522.9,266,1525,266z"/>
	</g>
	<g transform="translate(0 5)">
		<g transform="translate(34.5 19.307)">
			<path class="st0" d="M1513.6,251.3c1.2-0.9,1.4-2.8,0.7-5.7c-2.7-1.4-4.6-1.6-5.8-0.7c-1.8,1.4-2.1,3.9-0.7,5.7
				C1509.2,252.4,1511.8,252.7,1513.6,251.3z"/>
			<path class="st1" d="M1547.7,197.7l-30.6,47c-0.9,1.4,0.3,4.2,1.8,5c1.4,0.8,4.9,0.4,5.8-1l26.9-49c0.9-1.4,1.4-2.9,0-3.8
				C1550,195.2,1548.5,196.3,1547.7,197.7z"/>
			<path class="st0" d="M1525.3,261c2.1,0,3.9-2.1,3.9-4.7c0-1.7-1.3-3.3-3.9-4.7c-2.6,1.4-3.9,2.9-3.9,4.7
				C1521.4,258.9,1523.1,261,1525.3,261z"/>
		</g>
		<path class="st0" d="M1576.3,248.8c-8.6-1.3,19-14.8,41.8-18.6s56.8-4.5,56.8,7.6C1674.9,249.9,1584.9,250.1,1576.3,248.8z"/>
		<path class="st0" d="M1560.1,242.5c5.9,2.1-7.4-24.1-18.4-36.7s-38.4-34.1-46.3-24.9S1554.3,240.5,1560.1,242.5z"/>
		<path class="st0" d="M1566.6,262.6c1.9-6,25.1-8.6,46.6-5.2c21.5,3.4,40.5,5.4,41.3,12.7c0.8,7.3-6.8,13.2-36.5,7.6
			C1588.4,272,1564.7,268.6,1566.6,262.6z"/>
		<path class="st0" d="M1551.2,255.8c2-5.6-13.8-19.6-31.7-28.2c-17.9-8.6-33.1-16.9-37.8-11.7c-4.7,5.2-2.3,13.7,22.9,24.7
			C1529.7,251.7,1549.2,261.4,1551.2,255.8z"/>
	</g>
</g>
<g>
	<g transform="translate(34.5 19.307)">
		<path class="st0" d="M1962.8,256.3c1.2-0.9,1.4-2.8,0.7-5.7c-2.7-1.4-4.6-1.6-5.8-0.7c-1.8,1.4-2.1,3.9-0.7,5.7
			C1958.4,257.4,1961,257.7,1962.8,256.3z"/>
		<path class="st1" d="M1996.8,202.7l-30.6,47c-0.9,1.4,0.3,4.2,1.8,5c1.4,0.8,4.9,0.4,5.8-1l26.9-49c0.9-1.4,1.4-2.9,0-3.8
			C1999.2,200.2,1997.7,201.3,1996.8,202.7z"/>
		<path class="st0" d="M1974.5,266c2.1,0,3.9-2.1,3.9-4.7c0-1.7-1.3-3.3-3.9-4.7c-2.6,1.4-3.9,2.9-3.9,4.7
			C1970.6,263.9,1972.3,266,1974.5,266z"/>
	</g>
	<g transform="translate(0 5)">
		<g transform="translate(34.5 19.307)">
			<path class="st0" d="M1963.1,251.3c1.2-0.9,1.4-2.8,0.7-5.7c-2.7-1.4-4.6-1.6-5.8-0.7c-1.8,1.4-2.1,3.9-0.7,5.7
				C1958.7,252.4,1961.3,252.7,1963.1,251.3z"/>
			<path class="st1" d="M1997.1,197.7l-30.6,47c-0.9,1.4,0.3,4.2,1.8,5c1.4,0.8,4.9,0.4,5.8-1l26.9-49c0.9-1.4,1.4-2.9,0-3.8
				C1999.5,195.2,1998,196.3,1997.1,197.7z"/>
			<path class="st0" d="M1974.8,261c2.1,0,3.9-2.1,3.9-4.7c0-1.7-1.3-3.3-3.9-4.7c-2.6,1.4-3.9,2.9-3.9,4.7
				C1970.9,258.9,1972.6,261,1974.8,261z"/>
		</g>
		<path class="st0" d="M2025.8,248.8c-8.4-2.3,20.6-12.5,43.7-13.6c23.1-1.1,56.9,2.1,55.5,14.2S2034.2,251.1,2025.8,248.8z"/>
		<path class="st0" d="M2009.6,242.5c6.1,1.4-9.9-23.2-22.2-34.5s-41.8-29.8-48.6-19.8C1932,198.2,2003.6,241.1,2009.6,242.5z"/>
		<path class="st0" d="M2016.1,262.6c1.7-6.1,24.8-9.5,46.4-6.8c21.6,2.7,40.6,4.1,41.7,11.3c1.1,7.3-6.4,13.5-36.2,8.8
			S2014.4,268.7,2016.1,262.6z"/>
		<path class="st0" d="M2000.6,255.8c2.4-5.4-12.5-20.5-29.7-30.2c-17.3-9.7-31.9-19.1-36.9-14.3c-5,4.8-3.2,13.5,21.2,26.2
			S1998.3,261.3,2000.6,255.8z"/>
	</g>
</g>
<g>
	<g transform="translate(34.5 19.307)">
		<path class="st0" d="M2412.9,256.3c1.2-0.9,1.4-2.8,0.7-5.7c-2.7-1.4-4.6-1.6-5.8-0.7c-1.8,1.4-2.1,3.9-0.7,5.7
			C2408.5,257.4,2411.1,257.7,2412.9,256.3z"/>
		<path class="st1" d="M2447,202.7l-30.6,47c-0.9,1.4,0.3,4.2,1.8,5c1.4,0.8,4.9,0.4,5.8-1l26.9-49c0.9-1.4,1.4-2.9,0-3.8
			C2449.3,200.2,2447.8,201.3,2447,202.7z"/>
		<path class="st0" d="M2424.6,266c2.1,0,3.9-2.1,3.9-4.7c0-1.7-1.3-3.3-3.9-4.7c-2.6,1.4-3.9,2.9-3.9,4.7
			C2420.7,263.9,2422.5,266,2424.6,266z"/>
	</g>
	<g transform="translate(0 5)">
		<g transform="translate(34.5 19.307)">
			<path class="st0" d="M2413.2,251.3c1.2-0.9,1.4-2.8,0.7-5.7c-2.7-1.4-4.6-1.6-5.8-0.7c-1.8,1.4-2.1,3.9-0.7,5.7
				C2408.8,252.4,2411.4,252.7,2413.2,251.3z"/>
			<path class="st1" d="M2447.3,197.7l-30.6,47c-0.9,1.4,0.3,4.2,1.8,5c1.4,0.8,4.9,0.4,5.8-1l26.9-49c0.9-1.4,1.4-2.9,0-3.8
				C2449.6,195.2,2448.1,196.3,2447.3,197.7z"/>
			<path class="st0" d="M2424.9,261c2.1,0,3.9-2.1,3.9-4.7c0-1.7-1.3-3.3-3.9-4.7c-2.6,1.4-3.9,2.9-3.9,4.7
				C2421,258.9,2422.8,261,2424.9,261z"/>
		</g>
		<path class="st0" d="M2475.9,248.8c-8.3-2.6,21-11.8,44.2-12s56.8,4.2,54.9,16.2C2573.2,265,2484.2,251.4,2475.9,248.8z"/>
		<path class="st0" d="M2459.8,242.5c6.2,1.1-11.4-22.5-24.4-33c-13-10.5-43.7-27-49.8-16.6C2379.4,203.3,2453.6,241.5,2459.8,242.5
			z"/>
		<path class="st0" d="M2466.2,262.6c1-6.2,23.7-12,45.5-11.5c21.8,0.5,40.9-0.1,42.7,7c1.8,7.1-5,14-35.1,12.5
			C2489.1,268.9,2465.2,268.8,2466.2,262.6z"/>
		<path class="st0" d="M2450.8,255.8c2.7-5.2-10.9-21.4-27.4-32.4c-16.5-11-30.4-21.4-35.8-17c-5.4,4.4-4.2,13.2,19.1,27.7
			S2448,261.1,2450.8,255.8z"/>
	</g>
</g>
<g>
	<g transform="translate(34.5 19.307)">
		<path class="st0" d="M2862.9,256.3c1.2-0.9,1.4-2.8,0.7-5.7c-2.7-1.4-4.6-1.6-5.8-0.7c-1.8,1.4-2.1,3.9-0.7,5.7
			C2858.6,257.4,2861.1,257.7,2862.9,256.3z"/>
		<path class="st1" d="M2897,202.7l-30.6,47c-0.9,1.4,0.3,4.2,1.8,5c1.4,0.8,4.9,0.4,5.8-1l26.9-49c0.9-1.4,1.4-2.9,0-3.8
			C2899.4,200.2,2897.9,201.3,2897,202.7z"/>
		<path class="st0" d="M2874.6,266c2.1,0,3.9-2.1,3.9-4.7c0-1.7-1.3-3.3-3.9-4.7c-2.6,1.4-3.9,2.9-3.9,4.7
			C2870.8,263.9,2872.5,266,2874.6,266z"/>
	</g>
	<g transform="translate(0 5)">
		<g transform="translate(34.5 19.307)">
			<path class="st0" d="M2863.2,251.3c1.2-0.9,1.4-2.8,0.7-5.7c-2.7-1.4-4.6-1.6-5.8-0.7c-1.8,1.4-2.1,3.9-0.7,5.7
				C2858.8,252.4,2861.4,252.7,2863.2,251.3z"/>
			<path class="st1" d="M2897.3,197.7l-30.6,47c-0.9,1.4,0.3,4.2,1.8,5c1.4,0.8,4.9,0.4,5.8-1l26.9-49c0.9-1.4,1.4-2.9,0-3.8
				C2899.7,195.2,2898.1,196.3,2897.3,197.7z"/>
			<path class="st0" d="M2874.9,261c2.1,0,3.9-2.1,3.9-4.7c0-1.7-1.3-3.3-3.9-4.7c-2.6,1.4-3.9,2.9-3.9,4.7
				C2871.1,258.9,2872.8,261,2874.9,261z"/>
		</g>
		<path class="st0" d="M2926,248.8c-8.3-2.6,21-11.8,44.2-12c23.1-0.2,56.8,4.2,54.9,16.2S2934.3,251.4,2926,248.8z"/>
		<path class="st0" d="M2909.8,242.5c6.2,1.1-11.4-22.5-24.4-33c-13-10.5-43.7-27-49.8-16.6C2829.4,203.3,2903.6,241.5,2909.8,242.5
			z"/>
		<path class="st0" d="M2916.2,262.6c2.3-5.9,25.6-6.9,46.8-1.9c21.2,4.9,40,8.2,40.3,15.6c0.3,7.3-7.7,12.7-36.9,5
			C2937.3,273.5,2914,268.4,2916.2,262.6z"/>
		<path class="st0" d="M2900.8,255.8c1.9-5.6-14.1-19.4-32.1-27.7c-18-8.3-33.3-16.4-38-11.2c-4.6,5.2-2.1,13.7,23.2,24.4
			S2898.9,261.5,2900.8,255.8z"/>
	</g>
</g>
</svg>
