c<?xml version="1.0" encoding="utf-8"?>
<!-- Generator: Adobe Illustrator 23.0.4, SVG Export Plug-In . SVG Version: 6.00 Build 0)  -->
<svg version="1.1" id="bird-cells" xmlns="http://www.w3.org/2000/svg" xmlns:xlink="http://www.w3.org/1999/xlink" x="0px" y="0px"
	 viewBox="0 0 3671 510" style="enable-background:new 0 0 3671 510;" xml:space="preserve">
<style type="text/css">
	.st0{fill-rule:evenodd;clip-rule:evenodd;fill:url(#SVGID_1_);}
	.st1{fill-rule:evenodd;clip-rule:evenodd;fill:url(#SVGID_2_);}
	.st2{fill-rule:evenodd;clip-rule:evenodd;fill:url(#SVGID_3_);}
	.st3{fill-rule:evenodd;clip-rule:evenodd;fill:#494949;}
	.st4{fill:#494949;}
	.st5{fill-rule:evenodd;clip-rule:evenodd;fill:url(#SVGID_4_);}
	.st6{fill-rule:evenodd;clip-rule:evenodd;fill:url(#SVGID_5_);}
	.st7{fill-rule:evenodd;clip-rule:evenodd;fill:url(#SVGID_6_);}
	.st8{fill-rule:evenodd;clip-rule:evenodd;fill:url(#SVGID_7_);}
	.st9{fill-rule:evenodd;clip-rule:evenodd;fill:none;}
	.st10{fill-rule:evenodd;clip-rule:evenodd;fill:url(#SVGID_8_);}
	.st11{opacity:0.36;fill-rule:evenodd;clip-rule:evenodd;fill:none;}
</style>
<linearGradient id="SVGID_1_" gradientUnits="userSpaceOnUse" x1="1517.6254" y1="626.0721" x2="1518.3431" y2="624.3633" gradientTransform="matrix(-54.1505 -38.1302 -37.1988 52.8278 108890.5859 25110.5098)">
	<stop  offset="0" style="stop-color:#FCEA52"/>
	<stop  offset="1" style="stop-color:#FFE400"/>
</linearGradient>
<path class="st0" d="M3468.1,204.3c-30.2-21.3-59.1-26.4-80.3,3.7c-10.6,15.1-22.9,41.5-19.9,58.3c3,16.8,23.2,38.7,38.3,49.4
	c30.2,21.3,63.6,1.7,83.1-26S3498.3,225.6,3468.1,204.3z"/>
<linearGradient id="SVGID_2_" gradientUnits="userSpaceOnUse" x1="1523.2914" y1="630.1617" x2="1524.009" y2="628.4529" gradientTransform="matrix(-54.1505 -38.1302 -37.1988 52.8278 108890.5859 25110.5098)">
	<stop  offset="0" style="stop-color:#FCEA52"/>
	<stop  offset="1" style="stop-color:#FFE400"/>
</linearGradient>
<path class="st1" d="M3009.1,204.3c-30.2-21.3-59.1-26.4-80.3,3.7c-10.6,15.1-22.9,41.5-19.9,58.3c3,16.8,23.2,38.7,38.3,49.4
	c30.2,21.3,63.6,1.7,83.1-26S3039.4,225.6,3009.1,204.3z"/>
<linearGradient id="SVGID_3_" gradientUnits="userSpaceOnUse" x1="1551.6183" y1="650.6075" x2="1552.3359" y2="648.8988" gradientTransform="matrix(-54.1505 -38.1302 -37.1988 52.8278 108890.5859 25110.5098)">
	<stop  offset="0" style="stop-color:#FCEA52"/>
	<stop  offset="1" style="stop-color:#FFE400"/>
</linearGradient>
<path class="st2" d="M714.7,204.3c-30.2-21.3-59.1-26.4-80.3,3.7c-10.6,15.1-22.9,41.5-19.9,58.3c3,16.8,23.2,38.7,38.3,49.4
	c30.2,21.3,63.6,1.7,83.1-26C755.3,262,744.9,225.6,714.7,204.3z"/>
<g transform="translate(34.5 19.307)">
	<path class="st3" d="M625.1,261.3c1.2-0.9,1.4-2.8,0.7-5.7c-2.7-1.4-4.6-1.6-5.8-0.7c-1.8,1.4-2.1,3.9-0.7,5.7
		C620.7,262.4,623.3,262.7,625.1,261.3z"/>
	<path class="st4" d="M659.2,207.7l-30.6,47c-0.9,1.4,0.3,4.2,1.8,5s4.9,0.4,5.8-1l26.9-49c0.9-1.4,1.4-2.9,0-3.8
		C661.5,205.2,660,206.3,659.2,207.7z"/>
	<path class="st3" d="M636.8,271c2.1,0,3.9-2.1,3.9-4.7c0-1.7-1.3-3.3-3.9-4.7c-2.6,1.4-3.9,2.9-3.9,4.7
		C632.9,268.9,634.7,271,636.8,271z"/>
</g>
<linearGradient id="SVGID_4_" gradientUnits="userSpaceOnUse" x1="1557.2793" y1="654.6935" x2="1557.9969" y2="652.9848" gradientTransform="matrix(-54.1505 -38.1302 -37.1988 52.8278 108890.5859 25110.5098)">
	<stop  offset="0" style="stop-color:#FCEA52"/>
	<stop  offset="1" style="stop-color:#FFE400"/>
</linearGradient>
<path class="st5" d="M256.1,204.3c-30.2-21.3-59.1-26.4-80.3,3.7c-10.6,15.1-22.9,41.5-19.9,58.3c3,16.8,23.2,38.7,38.3,49.4
	c30.2,21.3,63.6,1.7,83.1-26S286.4,225.6,256.1,204.3z"/>
<g transform="translate(34.5 19.307)">
	<path class="st3" d="M166.6,261.3c1.2-0.9,1.4-2.8,0.7-5.7c-2.7-1.4-4.6-1.6-5.8-0.7c-1.8,1.4-2.1,3.9-0.7,5.7
		C162.2,262.4,164.8,262.7,166.6,261.3z"/>
	<path class="st4" d="M200.6,207.7l-30.6,47c-0.9,1.4,0.3,4.2,1.8,5s4.9,0.4,5.8-1l26.9-49c0.9-1.4,1.4-2.9,0-3.8
		C203,205.2,201.5,206.3,200.6,207.7z"/>
	<path class="st3" d="M178.2,271c2.1,0,3.9-2.1,3.9-4.7c0-1.7-1.3-3.3-3.9-4.7c-2.6,1.4-3.9,2.9-3.9,4.7
		C174.4,268.9,176.1,271,178.2,271z"/>
</g>
<linearGradient id="SVGID_5_" gradientUnits="userSpaceOnUse" x1="1540.2854" y1="642.4276" x2="1541.0031" y2="640.7189" gradientTransform="matrix(-54.1505 -38.1302 -37.1988 52.8278 108890.5859 25110.5098)">
	<stop  offset="0" style="stop-color:#FCEA52"/>
	<stop  offset="1" style="stop-color:#FFE400"/>
</linearGradient>
<path class="st6" d="M1632.6,204.3c-30.2-21.3-59.1-26.4-80.3,3.7c-10.6,15.1-22.9,41.5-19.9,58.3c3,16.8,23.2,38.7,38.3,49.4
	c30.2,21.3,63.6,1.7,83.1-26C1673.2,262,1662.9,225.6,1632.6,204.3z"/>
<g transform="translate(34.5 19.307)">
	<path class="st3" d="M1543.1,261.3c1.2-0.9,1.4-2.8,0.7-5.7c-2.7-1.4-4.6-1.6-5.8-0.7c-1.8,1.4-2.1,3.9-0.7,5.7
		C1538.7,262.4,1541.3,262.7,1543.1,261.3z"/>
	<path class="st4" d="M1577.1,207.7l-30.6,47c-0.9,1.4,0.3,4.2,1.8,5c1.4,0.8,4.9,0.4,5.8-1l26.9-49c0.9-1.4,1.4-2.9,0-3.8
		C1579.5,205.2,1578,206.3,1577.1,207.7z"/>
	<path class="st3" d="M1554.8,271c2.1,0,3.9-2.1,3.9-4.7c0-1.7-1.3-3.3-3.9-4.7c-2.6,1.4-3.9,2.9-3.9,4.7
		C1550.9,268.9,1552.6,271,1554.8,271z"/>
</g>
<linearGradient id="SVGID_6_" gradientUnits="userSpaceOnUse" x1="1545.9219" y1="646.496" x2="1546.6396" y2="644.7873" gradientTransform="matrix(-54.1505 -38.1302 -37.1988 52.8278 108890.5859 25110.5098)">
	<stop  offset="0" style="stop-color:#FCEA52"/>
	<stop  offset="1" style="stop-color:#FFE400"/>
</linearGradient>
<path class="st7" d="M1176.1,204.3c-30.2-21.3-59.1-26.4-80.3,3.7c-10.6,15.1-22.9,41.5-19.9,58.3c3,16.8,23.2,38.7,38.3,49.4
	c30.2,21.3,63.6,1.7,83.1-26S1206.3,225.6,1176.1,204.3z"/>
<g transform="translate(34.5 19.307)">
	<path class="st3" d="M1086.5,261.3c1.2-0.9,1.4-2.8,0.7-5.7c-2.7-1.4-4.6-1.6-5.8-0.7c-1.8,1.4-2.1,3.9-0.7,5.7
		C1082.1,262.4,1084.7,262.7,1086.5,261.3z"/>
	<path class="st4" d="M1120.6,207.7l-30.6,47c-0.9,1.4,0.3,4.2,1.8,5c1.4,0.8,4.9,0.4,5.8-1l26.9-49c0.9-1.4,1.4-2.9,0-3.8
		C1122.9,205.2,1121.4,206.3,1120.6,207.7z"/>
	<path class="st3" d="M1098.2,271c2.1,0,3.9-2.1,3.9-4.7c0-1.7-1.3-3.3-3.9-4.7c-2.6,1.4-3.9,2.9-3.9,4.7
		C1094.3,268.9,1096.1,271,1098.2,271z"/>
</g>
<g transform="translate(0 5)">
	<g transform="translate(34.5 19.307)">
		<path class="st3" d="M625.4,256.3c1.2-0.9,1.4-2.8,0.7-5.7c-2.7-1.4-4.6-1.6-5.8-0.7c-1.8,1.4-2.1,3.9-0.7,5.7
			C621,257.4,623.6,257.7,625.4,256.3z"/>
		<path class="st4" d="M659.4,202.7l-30.6,47c-0.9,1.4,0.3,4.2,1.8,5c1.4,0.8,4.9,0.4,5.8-1l26.9-49c0.9-1.4,1.4-2.9,0-3.8
			C661.8,200.2,660.3,201.3,659.4,202.7z"/>
		<path class="st3" d="M637.1,266c2.1,0,3.9-2.1,3.9-4.7c0-1.7-1.3-3.3-3.9-4.7c-2.6,1.4-3.9,2.9-3.9,4.7
			C633.2,263.9,634.9,266,637.1,266z"/>
	</g>
	<path class="st3" d="M688.1,253.8c-8.2-2.8,21.3-11.3,44.4-11s56.7,5.5,54.6,17.4C785,272.1,696.3,256.6,688.1,253.8z"/>
	<path class="st3" d="M671.9,247.5c6.2,0.9-12.1-22.1-25.4-32.2c-13.3-10.1-44.5-25.7-50.3-15C590.4,210.9,665.8,246.7,671.9,247.5z
		"/>
	<path class="st3" d="M678.4,267.6c2.6-5.7,26-5.3,46.9,0.8c20.9,6.1,39.5,10.6,39.3,17.9c-0.1,7.4-8.5,12.3-37.1,2.8
		C698.8,279.7,675.8,273.3,678.4,267.6z"/>
	<path class="st3" d="M662.9,260.8c1.2-5.8-16.4-17.5-35.3-23.5c-18.9-6-35.1-12.1-39.1-6.4c-3.9,5.8-0.4,13.8,26.1,21.3
		C641.1,259.7,661.8,266.6,662.9,260.8z"/>
</g>
<path class="st3" d="M229.6,258.8c-8-3.5,22.2-9.4,45.2-7.1c23,2.3,56,10.3,52.9,22.1C324.5,285.4,237.5,262.3,229.6,258.8z"/>
<path class="st3" d="M213.4,252.5c6.2,0.5-13.3-21.4-27.2-30.8c-13.9-9.4-45.9-23.1-51.1-12.2S207.2,252,213.4,252.5z"/>
<path class="st3" d="M219.9,272.6c2.3-5.9,25.6-7,46.8-2.1c21.2,4.8,40,8.1,40.4,15.4c0.3,7.3-7.7,12.8-36.9,5.2
	C241,283.4,217.6,278.5,219.9,272.6z"/>
<path class="st3" d="M204.4,265.8c1.6-5.7-15-18.8-33.3-26.2c-18.4-7.5-34.1-14.9-38.4-9.5c-4.4,5.4-1.5,13.8,24.3,23.3
	C182.8,263,202.8,271.5,204.4,265.8z"/>
<path class="st3" d="M1148.9,258.8c-8.4-2.2,20.4-12.8,43.5-14.3s57,1.3,55.7,13.3C1246.8,269.9,1157.3,260.9,1148.9,258.8z"/>
<path class="st3" d="M1132.7,252.5c6,1.8-8.7-23.7-20.4-35.6c-11.7-12-40.2-32-47.5-22.3C1057.4,204.2,1126.7,250.8,1132.7,252.5z"
	/>
<path class="st3" d="M1139.1,272.6c2.3-5.9,25.7-6.6,46.9-1.5c21.2,5.1,39.9,8.6,40.2,16c0.2,7.3-7.9,12.7-37,4.6
	C1160.1,283.7,1136.8,278.4,1139.1,272.6z"/>
<path class="st3" d="M1123.7,265.8c1.4-5.7-15.7-18.1-34.4-24.9c-18.7-6.7-34.6-13.5-38.8-7.9c-4.1,5.6-1,13.8,25.2,22.3
	C1101.9,263.9,1122.3,271.6,1123.7,265.8z"/>
<path class="st3" d="M1605.9,258.8c-8.5-1.7,19.6-14,42.6-16.7c23-2.7,56.9-2,56.4,10.2C1704.3,264.4,1614.4,260.5,1605.9,258.8z"/>
<path class="st3" d="M1589.7,252.5c6,1.7-8.9-23.6-20.7-35.5c-11.8-11.9-40.5-31.6-47.7-21.9C1514,204.9,1583.7,250.8,1589.7,252.5z
	"/>
<path class="st3" d="M1597.2,271.6c2.2-5.9,25.5-7.4,46.8-2.9c21.3,4.5,40.2,7.5,40.6,14.8c0.4,7.3-7.5,12.9-36.8,5.7
	C1618.4,282.1,1595,277.5,1597.2,271.6z"/>
<path class="st3" d="M1581.7,264.8c1.2-5.8-16.3-17.6-35.2-23.7s-35.1-12.3-39-6.6c-4,5.7-0.5,13.8,26,21.4
	C1559.9,263.6,1580.5,270.6,1581.7,264.8z"/>
<linearGradient id="SVGID_7_" gradientUnits="userSpaceOnUse" x1="1534.6201" y1="638.3385" x2="1535.3378" y2="636.6298" gradientTransform="matrix(-54.1505 -38.1302 -37.1988 52.8278 108890.5859 25110.5098)">
	<stop  offset="0" style="stop-color:#FCEA52"/>
	<stop  offset="1" style="stop-color:#FFE400"/>
</linearGradient>
<path class="st8" d="M2091.5,204.3c-30.2-21.3-59.1-26.4-80.3,3.7c-10.6,15.1-22.9,41.5-19.9,58.3c3,16.8,23.2,38.7,38.3,49.4
	c30.2,21.3,63.6,1.7,83.1-26S2121.8,225.6,2091.5,204.3z"/>
<g transform="translate(34.5 19.307)">
	<path class="st3" d="M2001.9,261.3c1.2-0.9,1.4-2.8,0.7-5.7c-2.7-1.4-4.6-1.6-5.8-0.7c-1.8,1.4-2.1,3.9-0.7,5.7
		C1997.6,262.4,2000.2,262.7,2001.9,261.3z"/>
	<path class="st4" d="M2036,207.7l-30.6,47c-0.9,1.4,0.3,4.2,1.8,5c1.4,0.8,4.9,0.4,5.8-1l26.9-49c0.9-1.4,1.4-2.9,0-3.8
		C2038.4,205.2,2036.9,206.3,2036,207.7z"/>
	<path class="st3" d="M2013.6,271c2.1,0,3.9-2.1,3.9-4.7c0-1.7-1.3-3.3-3.9-4.7c-2.6,1.4-3.9,2.9-3.9,4.7
		C2009.8,268.9,2011.5,271,2013.6,271z"/>
</g>
<path class="st3" d="M2064.7,258.8c-8.2-2.9,21.4-11,44.6-10.3c23.1,0.6,56.6,6.4,54.3,18.3C2161.2,278.7,2072.9,261.7,2064.7,258.8
	z"/>
<path class="st3" d="M2048.5,252.5c6.1,1.3-10.4-23-22.8-34.1c-12.5-11.1-42.4-29-49-18.9C1970,209.7,2042.4,251.2,2048.5,252.5z"/>
<path class="st3" d="M2057,270.6c1.4-6.2,24.3-10.6,46-9c21.7,1.7,40.8,2.1,42.2,9.3c1.4,7.2-5.7,13.8-35.7,10.5
	S2055.6,276.7,2057,270.6z"/>
<path class="st3" d="M2040.5,263.8c2.9-5.1-10.2-21.7-26.3-33.3c-16.1-11.6-29.6-22.4-35.2-18.2c-5.5,4.3-4.7,13,18.2,28.3
	C2020.1,256,2037.6,269,2040.5,263.8z"/>
<rect class="st9" width="458.8" height="510"/>
<rect x="917.6" class="st9" width="458.8" height="510"/>
<rect x="1376.4" class="st9" width="458.8" height="510"/>
<rect x="1835.2" class="st9" width="458.8" height="510"/>
<linearGradient id="SVGID_8_" gradientUnits="userSpaceOnUse" x1="1528.9557" y1="634.2501" x2="1529.6735" y2="632.5414" gradientTransform="matrix(-54.1505 -38.1302 -37.1988 52.8278 108890.5859 25110.5098)">
	<stop  offset="0" style="stop-color:#FCEA52"/>
	<stop  offset="1" style="stop-color:#FFE400"/>
</linearGradient>
<path class="st10" d="M2550.3,204.3c-30.2-21.3-59.1-26.4-80.3,3.7c-10.6,15.1-22.9,41.5-19.9,58.3c3,16.8,23.2,38.7,38.3,49.4
	c30.2,21.3,63.6,1.7,83.1-26S2580.6,225.6,2550.3,204.3z"/>
<g transform="translate(34.5 19.307)">
	<path class="st3" d="M2460.8,261.3c1.2-0.9,1.4-2.8,0.7-5.7c-2.7-1.4-4.6-1.6-5.8-0.7c-1.8,1.4-2.1,3.9-0.7,5.7
		C2456.4,262.4,2459,262.7,2460.8,261.3z"/>
	<path class="st4" d="M2494.8,207.7l-30.6,47c-0.9,1.4,0.3,4.2,1.8,5s4.9,0.4,5.8-1l26.9-49c0.9-1.4,1.4-2.9,0-3.8
		C2497.2,205.2,2495.7,206.3,2494.8,207.7z"/>
	<path class="st3" d="M2472.5,271c2.1,0,3.9-2.1,3.9-4.7c0-1.7-1.3-3.3-3.9-4.7c-2.6,1.4-3.9,2.9-3.9,4.7
		C2468.6,268.9,2470.3,271,2472.5,271z"/>
</g>
<path class="st3" d="M2523.5,258.8c-8-3.3,22-9.9,45-8.1c23.1,1.8,56.2,9.2,53.3,21C2618.9,283.5,2531.5,262.1,2523.5,258.8z"/>
<path class="st3" d="M2507.3,252.5c6.2,0.7-12.6-21.8-26.2-31.6c-13.6-9.8-45.1-24.6-50.7-13.8
	C2424.9,217.8,2501.1,251.8,2507.3,252.5z"/>
<path class="st3" d="M2515.8,270.6c0.3-6.3,22-14.8,43.7-17s40.5-5.1,43.2,1.7c2.7,6.9-3.2,14.6-33.3,16.7
	C2539.2,274.1,2515.5,276.9,2515.8,270.6z"/>
<path class="st3" d="M2499.3,263.8c3.5-4.8-7.7-22.7-22.5-36c-14.8-13.3-27-25.5-33-21.9c-5.9,3.6-6.1,12.4,15,30.2
	C2479.9,253.9,2495.9,268.6,2499.3,263.8z"/>
<rect x="2294.1" class="st9" width="458.8" height="510"/>
<path class="st3" d="M2982.3,258.8c-8-3.3,21.9-10,45-8.4s56.3,8.8,53.4,20.6S2990.4,262,2982.3,258.8z"/>
<path class="st3" d="M2966.1,252.5c6.2,0.6-13-21.6-26.7-31.2s-45.5-23.8-50.9-13C2883.1,219.3,2959.9,251.9,2966.1,252.5z"/>
<path class="st3" d="M2974.6,270.6c0.1-6.3,21.6-15.4,43.2-18.1c21.6-2.8,40.4-6.2,43.2,0.6c2.8,6.8-2.8,14.6-32.9,17.5
	C2998.1,273.5,2974.5,276.9,2974.6,270.6z"/>
<path class="st3" d="M2958.1,263.8c4.3-4.1-3.5-23.7-15.7-39.4s-22-30-28.5-27.5c-6.5,2.5-8.2,11.1,9.3,32.4
	C2940.8,250.5,2953.9,267.9,2958.1,263.8z"/>
<rect x="2752.9" class="st9" width="458.8" height="510"/>
<g transform="translate(34.5 19.307)">
	<path class="st3" d="M3378.4,261.3c1.2-0.9,1.4-2.8,0.7-5.7c-2.7-1.4-4.6-1.6-5.8-0.7c-1.8,1.4-2.1,3.9-0.7,5.7
		C3374,262.4,3376.6,262.7,3378.4,261.3z"/>
	<path class="st4" d="M3412.4,207.7l-30.6,47c-0.9,1.4,0.3,4.2,1.8,5s4.9,0.4,5.8-1l26.9-49c0.9-1.4,1.4-2.9,0-3.8
		C3414.8,205.2,3413.3,206.3,3412.4,207.7z"/>
	<path class="st3" d="M3390.1,271c2.1,0,3.9-2.1,3.9-4.7c0-1.7-1.3-3.3-3.9-4.7c-2.6,1.4-3.9,2.9-3.9,4.7
		C3386.2,268.9,3387.9,271,3390.1,271z"/>
</g>
<path class="st3" d="M3441.1,258.8c-8-3.3,21.9-10,45-8.4c23.1,1.6,56.3,8.7,53.5,20.6C3536.7,282.7,3449.2,262,3441.1,258.8z"/>
<path class="st3" d="M3424.9,252.5c6.2,0.8-12.3-22-25.7-32.1c-13.4-10-44.7-25.3-50.4-14.7C3343.1,216.5,3418.8,251.7,3424.9,252.5
	z"/>
<path class="st3" d="M3433.4,270.6c2.1-6,25.4-7.8,46.7-3.7c21.4,4.1,40.3,6.8,40.9,14.1c0.6,7.3-7.3,13-36.7,6.3
	C3454.8,280.7,3431.3,276.5,3433.4,270.6z"/>
<path class="st3" d="M3417,263.8c2.1-5.5-13.5-19.8-31.3-28.7s-32.8-17.4-37.6-12.3c-4.8,5.1-2.5,13.6,22.5,25.1
	C3395.6,259.4,3414.9,269.4,3417,263.8z"/>
<rect x="3211.7" class="st11" width="458.8" height="510"/>
<rect x="207.3" y="-275.4" class="st9" width="3211.2" height="92.7"/>
<g transform="translate(34.5 19.307)">
	<path class="st3" d="M2919.7,261.3c1.2-0.9,1.4-2.8,0.7-5.7c-2.7-1.4-4.6-1.6-5.8-0.7c-1.8,1.4-2.1,3.9-0.7,5.7
		C2915.3,262.4,2917.9,262.7,2919.7,261.3z"/>
	<path class="st4" d="M2953.8,207.7l-30.6,47c-0.9,1.4,0.3,4.2,1.8,5s4.9,0.4,5.8-1l26.9-49c0.9-1.4,1.4-2.9,0-3.8
		C2956.1,205.2,2954.6,206.3,2953.8,207.7z"/>
	<path class="st3" d="M2931.4,271c2.1,0,3.9-2.1,3.9-4.7c0-1.7-1.3-3.3-3.9-4.7c-2.6,1.4-3.9,2.9-3.9,4.7
		C2927.5,268.9,2929.3,271,2931.4,271z"/>
</g>
<rect x="2752.9" class="st9" width="458.8" height="510"/>
</svg>
